# xmcd
#
# Track frame offsets: 
#        151
#        7417
#        14219
#        24197
#        38287
#        44602
#        58067
#        73427
#        83937
#        90299
#        101572
#        112582
#        125454
#        139364
#        151134
#        159394
#        170194
#
# Disc length: 2404 seconds
#
# Revision: 2
# Processed by: cddbd v1.5.2PL0 Copyright (c) Steve Scherf et al.
# Submitted via: ExactAudioCopy v0.95a5
#
DISCID=e0096211
DTITLE=Various Artist - Guys and Dolls
DYEAR=1900
DGENRE=
TTITLE0=Fugue for Tinhorns
TTITLE1=Follow the Fold
TTITLE2=The Oldest Established
TTITLE3=I'll Know
TTITLE4=A Bushel and a Peck
TTITLE5=Guys and Dolls
TTITLE6=Adelaide's Lament
TTITLE7=If I were a Bell
TTITLE8=My Time of Day
TTITLE9=I've Never Been In Love Before
TTITLE10=Take Back Your Mink
TTITLE11=More I Cannot Wish You
TTITLE12=Luck Be A Lady
TTITLE13=Sue Me
TTITLE14=Marry the Man Today
TTITLE15=Sit Down, You're Rocking the Boat
TTITLE16=Guys and Dolls (Reprise)
EXTD=
EXTT0=
EXTT1=
EXTT2=
EXTT3=
EXTT4=
EXTT5=
EXTT6=
EXTT7=
EXTT8=
EXTT9=
EXTT10=
EXTT11=
EXTT12=
EXTT13=
EXTT14=
EXTT15=
EXTT16=
PLAYORDER=
